<svg width="59" height="34" viewBox="0 0 59 34" fill="none" xmlns="http://www.w3.org/2000/svg">
<rect width="59" height="33.8171" rx="16.9085" fill="url(#paint0_linear_26_240)"/>
<path d="M21.6224 17.3113C22.2998 17.5258 22.8304 17.887 23.2143 18.3951C23.5981 18.8919 23.7901 19.5072 23.7901 20.241C23.7901 21.2797 23.3836 22.0813 22.5707 22.6458C21.7692 23.199 20.595 23.4756 19.0483 23.4756H12.9178V11.6211H18.7096C20.1547 11.6211 21.2611 11.8977 22.0288 12.4509C22.8078 13.0041 23.1973 13.7549 23.1973 14.7033C23.1973 15.2791 23.0562 15.7928 22.774 16.2444C22.503 16.696 22.1191 17.0516 21.6224 17.3113ZM15.6443 13.6872V16.4814H18.3709C19.0483 16.4814 19.562 16.3629 19.912 16.1258C20.2619 15.8887 20.4369 15.5387 20.4369 15.0758C20.4369 14.6129 20.2619 14.2686 19.912 14.0428C19.562 13.8057 19.0483 13.6872 18.3709 13.6872H15.6443ZM18.8451 21.4095C19.5676 21.4095 20.1095 21.291 20.4708 21.0539C20.8434 20.8168 21.0297 20.4499 21.0297 19.9531C21.0297 18.9709 20.3015 18.4798 18.8451 18.4798H15.6443V21.4095H18.8451ZM34.8596 14.3646V23.4756H32.3532V22.3917C32.0032 22.7869 31.5855 23.0917 31.1 23.3062C30.6145 23.5095 30.0896 23.6111 29.5251 23.6111C28.3283 23.6111 27.38 23.2667 26.68 22.578C25.98 21.8893 25.63 20.8676 25.63 19.5128V14.3646H28.2719V19.1233C28.2719 20.591 28.8872 21.3248 30.1178 21.3248C30.75 21.3248 31.2581 21.1216 31.6419 20.7152C32.0258 20.2975 32.2177 19.6822 32.2177 18.8693V14.3646H34.8596ZM46.3504 14.3646L42.2352 24.0344C41.8174 25.0844 41.2981 25.8239 40.6771 26.2529C40.0675 26.6819 39.328 26.8965 38.4587 26.8965C37.9845 26.8965 37.5159 26.8231 37.0531 26.6763C36.5902 26.5295 36.212 26.3263 35.9184 26.0666L36.8837 24.1869C37.0869 24.3675 37.3184 24.5086 37.578 24.6102C37.849 24.7118 38.1143 24.7626 38.374 24.7626C38.7353 24.7626 39.0288 24.6723 39.2546 24.4917C39.4804 24.3223 39.6836 24.0344 39.8643 23.628L39.8981 23.5433L35.9523 14.3646H38.6788L41.236 20.5458L43.8101 14.3646H46.3504Z" fill="white"/>
<defs>
<linearGradient id="paint0_linear_26_240" x1="3.2378" y1="23.9238" x2="70.3323" y2="-12.5915" gradientUnits="userSpaceOnUse">
<stop offset="0.286458" stop-color="#E76730"/>
<stop offset="0.90625" stop-color="#1814DF"/>
</linearGradient>
</defs>
</svg>
