<svg width="59" height="35" viewBox="0 0 59 35" fill="none" xmlns="http://www.w3.org/2000/svg">
<rect y="0.640259" width="59" height="33.8171" rx="16.9085" fill="url(#paint0_linear_26_240)"/>
<path d="M12.9178 24.1159V12.2614H18.7096C20.1998 12.2614 21.3176 12.5436 22.0627 13.1081C22.8191 13.6726 23.1973 14.4178 23.1973 15.3435C23.1973 15.9645 23.0449 16.5064 22.7401 16.9693C22.4353 17.4209 22.0175 17.7709 21.4869 18.0193C20.9563 18.2676 20.3466 18.3918 19.6579 18.3918L19.9797 17.6975C20.7248 17.6975 21.3853 17.8217 21.9611 18.0701C22.5369 18.3072 22.9828 18.6628 23.299 19.137C23.6264 19.6112 23.7901 20.1926 23.7901 20.8813C23.7901 21.8974 23.3893 22.6933 22.5877 23.2691C21.7861 23.8336 20.6063 24.1159 19.0483 24.1159H12.9178ZM15.6443 22.0498H18.8451C19.5563 22.0498 20.0926 21.9369 20.4539 21.7111C20.8264 21.474 21.0127 21.1014 21.0127 20.5934C21.0127 20.0966 20.8264 19.7297 20.4539 19.4926C20.0926 19.2442 19.5563 19.12 18.8451 19.12H15.4411V17.1217H18.3709C19.037 17.1217 19.545 17.0088 19.895 16.783C20.2563 16.5459 20.4369 16.1903 20.4369 15.7161C20.4369 15.2532 20.2563 14.9089 19.895 14.6831C19.545 14.446 19.037 14.3274 18.3709 14.3274H15.6443V22.0498ZM29.5251 24.2513C28.7686 24.2513 28.0912 24.1046 27.4929 23.811C26.9058 23.5175 26.4485 23.0715 26.1211 22.4732C25.7937 21.8635 25.63 21.0901 25.63 20.1531V15.0048H28.2719V19.7636C28.2719 20.52 28.4299 21.0789 28.7461 21.4401C29.0735 21.7901 29.5307 21.9651 30.1178 21.9651C30.5242 21.9651 30.8855 21.8804 31.2016 21.7111C31.5177 21.5305 31.7661 21.2595 31.9468 20.8982C32.1274 20.5256 32.2177 20.0628 32.2177 19.5095V15.0048H34.8596V24.1159H32.3532V21.6095L32.8105 22.3377C32.5056 22.9699 32.054 23.4498 31.4557 23.7772C30.8686 24.0933 30.225 24.2513 29.5251 24.2513ZM38.4587 27.5367C37.9845 27.5367 37.5159 27.4633 37.0531 27.3166C36.5902 27.1698 36.212 26.9666 35.9184 26.7069L36.8837 24.8271C37.0869 25.0078 37.3184 25.1489 37.578 25.2505C37.849 25.3521 38.1143 25.4029 38.374 25.4029C38.7466 25.4029 39.0401 25.3126 39.2546 25.132C39.4804 24.9626 39.6836 24.6747 39.8643 24.2683L40.3384 23.1506L40.5417 22.8627L43.8101 15.0048H46.3504L42.2352 24.6747C41.9416 25.4086 41.6029 25.9844 41.2191 26.4021C40.8465 26.8198 40.4288 27.1134 39.9659 27.2827C39.5143 27.4521 39.0119 27.5367 38.4587 27.5367ZM40.0167 24.4715L35.9523 15.0048H38.6788L41.8287 22.6256L40.0167 24.4715Z" fill="white"/>
<defs>
<linearGradient id="paint0_linear_26_240" x1="3.2378" y1="24.564" x2="70.3323" y2="-11.9512" gradientUnits="userSpaceOnUse">
<stop offset="0.286458" stop-color="#E76730"/>
<stop offset="0.90625" stop-color="#1814DF"/>
</linearGradient>
</defs>
</svg>
