<svg width="35" height="35" viewBox="0 0 35 35" fill="none" xmlns="http://www.w3.org/2000/svg">
<path d="M15.8593 0.0388489C12.4545 0.367638 9.07715 1.75814 6.4328 3.90896C5.65182 4.53914 4.4187 5.78579 3.80214 6.55981C2.23334 8.5257 0.945421 11.1834 0.41107 13.5671C0.0753877 15.0604 3.05176e-05 15.7933 3.05176e-05 17.5057C3.05176e-05 19.2182 0.0753877 19.9511 0.41107 21.4443C0.952272 23.876 2.27445 26.5748 3.89805 28.5681C4.52831 29.349 5.77513 30.5819 6.54926 31.1984C8.5154 32.767 11.1734 34.0547 13.5575 34.589C15.0509 34.9247 15.7839 35 17.4966 35C19.2093 35 19.9423 34.9247 21.4357 34.589C23.2238 34.1917 25.5667 33.1917 27.1081 32.1711C29.773 30.397 31.8213 28.068 33.2257 25.2117C34.082 23.465 34.5684 21.8964 34.8767 19.9031C35.0411 18.8003 35.0411 16.2111 34.8767 15.1083C34.5684 13.115 34.082 11.5464 33.2257 9.79975C32.3077 7.93661 31.287 6.51187 29.8141 5.05972C28.3686 3.62812 27.0464 2.6897 25.2036 1.78553C23.4772 0.936165 21.8742 0.436134 19.9628 0.141594C19.0997 0.0114479 16.7567 -0.0433502 15.8593 0.0388489ZM19.9286 2.36092C21.5727 2.63491 22.799 3.03219 24.313 3.77197C28.2179 5.6899 31.239 9.37506 32.3283 13.574C32.6982 14.9919 32.801 15.8412 32.801 17.5057C32.801 19.1702 32.6982 20.0196 32.3283 21.4375C31.239 25.6364 28.2179 29.3216 24.313 31.2395C22.799 31.9793 21.5933 32.3697 19.8943 32.6574C18.6612 32.8697 16.332 32.8697 15.0989 32.6574C13.3999 32.3697 12.1942 31.9793 10.6802 31.2395C6.77533 29.3216 3.75419 25.6364 2.66494 21.4375C2.295 20.0196 2.19224 19.1702 2.19224 17.5057C2.19224 15.8412 2.295 14.9919 2.66494 13.574C3.04172 12.1218 3.82955 10.3546 4.65163 9.11477C7.26858 5.18301 11.3105 2.7308 16.0237 2.23077C16.9074 2.13487 18.9969 2.20337 19.9286 2.36092Z" fill="url(#paint0_linear_143_298)"/>
<path d="M17.0513 8.83389C16.7978 8.95033 16.5718 9.19007 16.4759 9.44351C16.4211 9.57366 16.4005 11.5258 16.4005 15.5398V21.4443L14.0576 19.1017C12.7628 17.8139 11.6188 16.7248 11.516 16.6837C10.6117 16.3481 9.74167 17.2591 10.1253 18.1427C10.2486 18.4235 16.6471 24.8075 16.9006 24.9034C17.1472 24.9925 17.846 24.9925 18.0926 24.9034C18.3118 24.8212 24.7104 18.4646 24.8679 18.177C24.9227 18.0742 24.9638 17.8619 24.9638 17.7043C24.9638 16.9234 24.1555 16.396 23.4361 16.7111C23.3128 16.7659 22.1893 17.8345 20.9219 19.1085L18.627 21.41L18.5927 15.4234C18.5585 9.50516 18.5585 9.42981 18.4146 9.24487C18.3392 9.14213 18.1954 8.99143 18.0995 8.92293C17.8665 8.75169 17.3253 8.70374 17.0513 8.83389Z" fill="url(#paint1_linear_143_298)"/>
<defs>
<linearGradient id="paint0_linear_143_298" x1="33.1579" y1="24.8651" x2="6.45114" y2="-3.68724" gradientUnits="userSpaceOnUse">
<stop offset="0.240645" stop-color="#50443D"/>
<stop offset="0.721734" stop-color="#E76730"/>
</linearGradient>
<linearGradient id="paint1_linear_143_298" x1="24.178" y1="20.2761" x2="11.7823" y2="8.06952" gradientUnits="userSpaceOnUse">
<stop offset="0.240645" stop-color="#50443D"/>
<stop offset="0.721734" stop-color="#E76730"/>
</linearGradient>
</defs>
</svg>
