<svg width="27" height="27" viewBox="0 0 27 27" fill="none" xmlns="http://www.w3.org/2000/svg">
<path d="M12.2327 0.0299702C9.60649 0.283607 7.00143 1.35628 4.96177 3.01549C4.35938 3.50162 3.40824 4.46333 2.93267 5.06043C1.72262 6.57697 0.729205 8.6272 0.317046 10.4661C0.0581251 11.618 0 12.1834 0 13.5044C0 14.8254 0.0581251 15.3908 0.317046 16.5428C0.734489 18.4186 1.75432 20.5006 3.00665 22.0382C3.49279 22.6406 4.45449 23.5918 5.0516 24.0673C6.56813 25.2774 8.61836 26.2708 10.4572 26.683C11.6092 26.9419 12.1746 27 13.4956 27C14.8166 27 15.382 26.9419 16.5339 26.683C17.9131 26.3765 19.7202 25.605 20.9092 24.8177C22.9647 23.4491 24.5446 21.6525 25.6279 19.449C26.2884 18.1016 26.6635 16.8915 26.9013 15.3539C27.0282 14.5031 27.0282 12.5057 26.9013 11.655C26.6635 10.1173 26.2884 8.90725 25.6279 7.55981C24.9198 6.12253 24.1325 5.02344 22.9964 3.90321C21.8814 2.79884 20.8616 2.07492 19.4402 1.37742C18.1086 0.722187 16.8721 0.336449 15.3979 0.109232C14.7321 0.00883484 12.9249 -0.0334377 12.2327 0.0299702ZM15.3714 1.82128C16.6396 2.03264 17.5855 2.33912 18.7533 2.9098C21.7652 4.38935 24.0955 7.23219 24.9356 10.4713C25.221 11.5652 25.3003 12.2204 25.3003 13.5044C25.3003 14.7885 25.221 15.4437 24.9356 16.5375C24.0955 19.7766 21.7652 22.6195 18.7533 24.099C17.5855 24.6697 16.6555 24.9709 15.345 25.1928C14.3939 25.3566 12.5973 25.3566 11.6461 25.1928C10.3357 24.9709 9.40569 24.6697 8.23791 24.099C5.22597 22.6195 2.89568 19.7766 2.05551 16.5375C1.77017 15.4437 1.69091 14.7885 1.69091 13.5044C1.69091 12.2204 1.77017 11.5652 2.05551 10.4713C2.34614 9.35112 2.95381 7.98782 3.5879 7.0314C5.60643 3.99833 8.72404 2.10662 12.3595 1.72088C13.0411 1.6469 14.6528 1.69975 15.3714 1.82128Z" fill="url(#paint0_linear_25_114)"/>
<path d="M13.1521 6.81475C12.9566 6.90458 12.7822 7.08952 12.7082 7.28503C12.666 7.38543 12.6501 8.8914 12.6501 11.9879V16.5428L10.843 14.7356C9.84426 13.7422 8.96182 12.902 8.88256 12.8703C8.18506 12.6114 7.51398 13.3142 7.80989 13.9958C7.905 14.2125 12.8403 19.1373 13.0359 19.2112C13.2261 19.2799 13.7651 19.2799 13.9553 19.2112C14.1244 19.1478 19.0597 14.2442 19.1813 14.0223C19.2235 13.943 19.2552 13.7792 19.2552 13.6577C19.2552 13.0553 18.6317 12.6484 18.0769 12.8915C17.9818 12.9337 17.1152 13.758 16.1376 14.7409L14.3674 16.5163L14.341 11.898C14.3146 7.33259 14.3146 7.27446 14.2036 7.13179C14.1455 7.05253 14.0346 6.93628 13.9606 6.88344C13.7809 6.75134 13.3635 6.71435 13.1521 6.81475Z" fill="url(#paint1_linear_25_114)"/>
<defs>
<linearGradient id="paint0_linear_25_114" x1="25.5756" y1="19.1817" x2="4.97303" y2="-2.84173" gradientUnits="userSpaceOnUse">
<stop offset="0.240645" stop-color="#50443D"/>
<stop offset="0.721734" stop-color="#EF7A38"/>
</linearGradient>
<linearGradient id="paint1_linear_25_114" x1="18.6491" y1="15.6416" x2="9.08673" y2="6.22635" gradientUnits="userSpaceOnUse">
<stop offset="0.240645" stop-color="#50443D"/>
<stop offset="0.721734" stop-color="#EF7A38"/>
</linearGradient>
</defs>
</svg>
