<svg width="90" height="90" viewBox="0 0 90 90" fill="none" xmlns="http://www.w3.org/2000/svg">
<path d="M73.3856 18.8876L70.9145 21.3588C76.8111 27.8072 80.0811 36.2288 80.0811 44.9667C80.0811 53.7046 76.8111 62.1263 70.9145 68.5746L73.3856 71.0458C79.9433 63.9328 83.584 54.6125 83.584 44.9379C83.584 35.2633 79.9433 25.943 73.3856 18.83V18.8876Z" fill="#5A5564"/>
<path d="M21.4171 19.1017C27.8655 13.2051 36.2871 9.93511 45.025 9.93511C53.7629 9.93511 62.1845 13.2051 68.6329 19.1017L71.1041 16.6305C63.9911 10.0729 54.6708 6.43213 44.9962 6.43213C35.3216 6.43213 26.0013 10.0729 18.8883 16.6305L21.4171 19.1017Z" fill="#5A5564"/>
<path d="M19.1027 68.5995C13.2131 62.1525 9.94744 53.7361 9.94744 45.0039C9.94744 36.2718 13.2131 27.8553 19.1027 21.4084L16.6316 18.9372C10.0739 26.0502 6.43317 35.3705 6.43317 45.0451C6.43317 54.7197 10.0739 64.04 16.6316 71.153L19.1027 68.5995Z" fill="#5A5564"/>
<path d="M68.5987 70.8816C62.1503 76.7782 53.7287 80.0482 44.9908 80.0482C36.2528 80.0482 27.8312 76.7782 21.3829 70.8816L18.9117 73.3528C26.0247 79.9104 35.345 83.5512 45.0196 83.5512C54.6942 83.5512 64.0145 79.9104 71.1275 73.3528L68.5987 70.8816Z" fill="#5A5564"/>
<path d="M44.9918 90C36.0923 89.9983 27.3932 87.358 19.9942 82.4127C12.5953 77.4674 6.82879 70.4393 3.42386 62.2169C0.0189427 53.9946 -0.871513 44.9473 0.865084 36.2189C2.60168 27.4905 6.88735 19.473 13.1802 13.1802C19.4731 6.88732 27.4906 2.60165 36.2189 0.865054C44.9473 -0.871543 53.9946 0.0189122 62.217 3.42383C70.4393 6.82876 77.4674 12.5952 82.4127 19.9942C87.358 27.3931 89.9984 36.0923 90 44.9917C90.0011 50.9026 88.8376 56.7558 86.5762 62.2169C84.3147 67.6781 80.9994 72.6402 76.8198 76.8198C72.6402 80.9994 67.6781 84.3146 62.217 86.5761C56.7558 88.8376 50.9026 90.0011 44.9918 90ZM44.9918 3.50905C36.7926 3.51556 28.7795 5.95264 21.9651 10.5122C15.1507 15.0718 9.84097 21.5493 6.70706 29.1258C3.57315 36.7024 2.75572 45.038 4.35808 53.079C5.96045 61.1201 9.91068 68.5056 15.7095 74.3021C21.5083 80.0986 28.8954 84.0459 36.9371 85.6451C44.9788 87.2443 53.314 86.4235 60.8893 83.2866C68.4647 80.1497 74.94 74.8374 79.4969 68.0212C84.0538 61.205 86.4877 53.1909 86.4909 44.9917C86.4931 39.5422 85.4211 34.1456 83.3361 29.1106C81.2511 24.0757 78.1941 19.5011 74.3399 15.6484C70.4857 11.7957 65.9099 8.74055 60.8741 6.65759C55.8383 4.57463 50.4413 3.50472 44.9918 3.50905Z" fill="#282138"/>
<path d="M33.7584 42.8207L21.5088 47.1599L33.7584 51.4991V57.1055L14.8272 50.1167V44.2031L33.7584 37.2143V42.8207Z" fill="#F09242"/>
<path d="M47.2512 28.2672H53.7408L41.0688 64.4399H34.5792L47.2512 28.2672Z" fill="#F09242"/>
<path d="M73.0959 44.2031V50.1167L54.1647 57.1055V51.4991L66.4143 47.1599L54.1647 42.8207V37.2143L73.0959 44.2031Z" fill="#F09242"/>
</svg>
