<svg width="42" height="39" viewBox="0 0 42 39" fill="none" xmlns="http://www.w3.org/2000/svg">
<path d="M39.5915 0.142258L23.3334 12.2679L26.3399 5.11395L39.5915 0.142258Z" fill="#E2761B"/>
<path d="M2.05884 0.142258L18.1863 12.3828L15.3268 5.11395L2.05884 0.142258ZM33.7419 28.2496L29.4118 34.9113L38.6765 37.471L41.3399 28.3972L33.7419 28.2496ZM0.343155 28.3972L2.99021 37.471L12.2549 34.9113L7.92486 28.2496L0.343155 28.3972Z" fill="#E4761B"/>
<path d="M11.732 16.9935L9.15033 20.9151L18.3497 21.3253L18.0229 11.3983L11.732 16.9935ZM29.9183 16.9935L23.5458 11.2834L23.3333 21.3253L32.5163 20.9151L29.9183 16.9935ZM12.2549 34.9113L17.7778 32.2039L13.0065 28.4629L12.2549 34.9113ZM23.8725 32.2039L29.4118 34.9113L28.6438 28.4629L23.8725 32.2039Z" fill="#E4761B"/>
<path d="M29.4117 34.9113L23.8725 32.2039L24.3137 35.8302L24.2647 37.3561L29.4117 34.9113ZM12.2549 34.9113L17.4019 37.3561L17.3692 35.8302L17.7777 32.2039L12.2549 34.9113Z" fill="#D7C1B3"/>
<path d="M17.4837 26.0673L12.8759 24.7054L16.1275 23.2122L17.4837 26.0673ZM24.1667 26.0673L25.5229 23.2122L28.7909 24.7054L24.1667 26.0673Z" fill="#233447"/>
<path d="M12.2549 34.9113L13.0392 28.2496L7.92482 28.3972L12.2549 34.9113ZM28.6274 28.2496L29.4118 34.9113L33.7418 28.3972L28.6274 28.2496ZM32.5163 20.9151L23.3333 21.3253L24.183 26.0673L25.5392 23.2122L28.8072 24.7054L32.5163 20.9151ZM12.8758 24.7054L16.1438 23.2122L17.4836 26.0673L18.3497 21.3253L9.15031 20.9151L12.8758 24.7054Z" fill="#CD6116"/>
<path d="M9.15033 20.9151L13.0065 28.4629L12.8758 24.7054L9.15033 20.9151ZM28.8072 24.7054L28.6438 28.4629L32.5163 20.9151L28.8072 24.7054ZM18.3497 21.3253L17.4837 26.0673L18.5621 31.6625L18.8072 24.2952L18.3497 21.3253ZM23.3333 21.3253L22.8922 24.2788L23.0882 31.6625L24.183 26.0673L23.3333 21.3253Z" fill="#E4751F"/>
<path d="M24.183 26.0673L23.0883 31.6625L23.8726 32.204L28.6438 28.4629L28.8072 24.7054L24.183 26.0673ZM12.8759 24.7054L13.0066 28.4629L17.7778 32.204L18.5621 31.6625L17.4837 26.0673L12.8759 24.7054Z" fill="#F6851B"/>
<path d="M24.2647 37.3562L24.3137 35.8302L23.9052 35.4692H17.745L17.3692 35.8302L17.4019 37.3562L12.2549 34.9113L14.0522 36.3881L17.696 38.9313H23.9542L27.6143 36.3881L29.4117 34.9113L24.2647 37.3562Z" fill="#C0AD9E"/>
<path d="M23.8725 32.204L23.0882 31.6625H18.5621L17.7778 32.204L17.3693 35.8302L17.7451 35.4692H23.9052L24.3137 35.8302L23.8725 32.204Z" fill="#161616"/>
<path d="M40.2778 13.0555L41.6667 6.36098L39.5915 0.142258L23.8726 11.8577L29.9183 16.9935L38.4641 19.504L40.3595 17.2889L39.5425 16.6982L40.8497 15.5004L39.8366 14.7128L41.1438 13.7119L40.2778 13.0555ZM0 6.36098L1.38889 13.0555L0.506536 13.7119L1.81373 14.7128L0.816994 15.5004L2.12418 16.6982L1.30719 17.2889L3.18628 19.504L11.732 16.9935L17.7778 11.8577L2.05882 0.142258L0 6.36098Z" fill="#763D16"/>
<path d="M38.4641 19.504L29.9183 16.9935L32.5164 20.9151L28.6438 28.4629L33.7419 28.3972H41.3399L38.4641 19.504ZM11.732 16.9935L3.18629 19.504L0.343155 28.3972H7.92486L13.0066 28.4629L9.15035 20.9151L11.732 16.9935ZM23.3334 21.3253L23.8726 11.8577L26.3562 5.11394H15.3268L17.7778 11.8577L18.3497 21.3253L18.5458 24.3116L18.5621 31.6625H23.0883L23.1209 24.3116L23.3334 21.3253Z" fill="#F6851B"/>
</svg>
