<svg width="67" height="51" viewBox="0 0 67 51" fill="none" xmlns="http://www.w3.org/2000/svg">
<path d="M64.7299 6.14226L48.5181 18.2679L51.5161 11.114L64.7299 6.14226Z" fill="#E2761B"/>
<path d="M27.3044 6.14226L43.3858 18.3828L40.5345 11.114L27.3044 6.14226ZM58.8969 34.2496L54.5792 40.9113L63.8174 43.471L66.4732 34.3972L58.8969 34.2496ZM25.5936 34.3972L28.2331 43.471L37.4713 40.9113L33.1536 34.2496L25.5936 34.3972Z" fill="#E4761B"/>
<path d="M36.9499 22.9935L34.3756 26.9151L43.5487 27.3253L43.2228 17.3983L36.9499 22.9935ZM55.0843 22.9935L48.7299 17.2834L48.5181 27.3253L57.6749 26.9151L55.0843 22.9935ZM37.4713 40.9113L42.9784 38.2039L38.2208 34.4629L37.4713 40.9113ZM49.0558 38.2039L54.5792 40.9113L53.8134 34.4629L49.0558 38.2039Z" fill="#E4761B"/>
<path d="M54.5791 40.9113L49.0557 38.2039L49.4956 41.8302L49.4468 43.3561L54.5791 40.9113ZM37.4713 40.9113L42.6036 43.3561L42.571 41.8302L42.9784 38.2039L37.4713 40.9113Z" fill="#D7C1B3"/>
<path d="M42.6852 32.0673L38.0905 30.7054L41.3328 29.2122L42.6852 32.0673ZM49.3491 32.0673L50.7014 29.2122L53.9601 30.7054L49.3491 32.0673Z" fill="#233447"/>
<path d="M37.4713 40.9113L38.2534 34.2496L33.1536 34.3972L37.4713 40.9113ZM53.7971 34.2496L54.5792 40.9113L58.8969 34.3972L53.7971 34.2496ZM57.6749 26.9151L48.5181 27.3253L49.3653 32.0673L50.7177 29.2122L53.9763 30.7054L57.6749 26.9151ZM38.0905 30.7054L41.3491 29.2122L42.6851 32.0673L43.5487 27.3253L34.3756 26.9151L38.0905 30.7054Z" fill="#CD6116"/>
<path d="M34.3756 26.9151L38.2208 34.4629L38.0905 30.7054L34.3756 26.9151ZM53.9763 30.7054L53.8134 34.4629L57.6749 26.9151L53.9763 30.7054ZM43.5487 27.3253L42.6851 32.0673L43.7605 37.6625L44.0049 30.2952L43.5487 27.3253ZM48.5181 27.3253L48.0782 30.2788L48.2737 37.6625L49.3653 32.0673L48.5181 27.3253Z" fill="#E4751F"/>
<path d="M49.3654 32.0673L48.2737 37.6625L49.0558 38.204L53.8134 34.4629L53.9764 30.7054L49.3654 32.0673ZM38.0905 30.7054L38.2208 34.4629L42.9785 38.204L43.7605 37.6625L42.6852 32.0673L38.0905 30.7054Z" fill="#F6851B"/>
<path d="M49.4468 43.3562L49.4956 41.8302L49.0883 41.4692H42.9458L42.571 41.8302L42.6036 43.3562L37.4713 40.9113L39.2635 42.3881L42.8969 44.9313H49.1372L52.7869 42.3881L54.5791 40.9113L49.4468 43.3562Z" fill="#C0AD9E"/>
<path d="M49.0558 38.204L48.2737 37.6625H43.7605L42.9784 38.204L42.5711 41.8302L42.9458 41.4692H49.0884L49.4957 41.8302L49.0558 38.204Z" fill="#161616"/>
<path d="M65.4141 19.0555L66.7991 12.361L64.7298 6.14226L49.0558 17.8577L55.0843 22.9935L63.6056 25.504L65.4956 23.2889L64.6809 22.6982L65.9844 21.5004L64.9742 20.7128L66.2777 19.7119L65.4141 19.0555ZM25.2514 12.361L26.6364 19.0555L25.7565 19.7119L27.06 20.7128L26.0661 21.5004L27.3695 22.6982L26.5549 23.2889L28.4286 25.504L36.9499 22.9935L42.9784 17.8577L27.3044 6.14226L25.2514 12.361Z" fill="#763D16"/>
<path d="M63.6056 25.504L55.0843 22.9935L57.6749 26.9151L53.8134 34.4629L58.8969 34.3972H66.4732L63.6056 25.504ZM36.95 22.9935L28.4286 25.504L25.5936 34.3972H33.1536L38.2208 34.4629L34.3756 26.9151L36.95 22.9935ZM48.5181 27.3253L49.0558 17.8577L51.5324 11.1139H40.5345L42.9784 17.8577L43.5487 27.3253L43.7442 30.3116L43.7605 37.6625H48.2737L48.3063 30.3116L48.5181 27.3253Z" fill="#F6851B"/>
</svg>
