<svg width="1646" height="1243" viewBox="0 0 1646 1243" fill="none" xmlns="http://www.w3.org/2000/svg">
<path d="M614.331 312.677L674.891 507.95L476.278 463.476L614.331 312.677Z" fill="#FB8756"/>
<path d="M1320.6 1004.46L1402.32 812.648L1528.08 983.833L1320.6 1004.46Z" fill="#FB8756"/>
<path d="M1272.21 587.872L1213.42 382.838L1419.17 433.289L1272.21 587.872Z" fill="#FB8756"/>
<path d="M524.987 791.541L586.289 1006.58L376.669 958.879L524.987 791.541Z" fill="#FB8756"/>
<path d="M885 750.774L1089.66 689.025L1065.55 792.752L1041.43 896.479L885 750.774Z" fill="#FB8756"/>
<path d="M103.774 696.985L186.071 508.068L308.655 674.938L103.774 696.985Z" fill="#FB8756"/>
<path d="M1103.7 119.204L1074.7 315.015L913.099 172.634L1103.7 119.204Z" fill="#FB8756"/>
<path d="M224.95 82.4176L421.618 138.278L275.932 280.407L224.95 82.4176Z" fill="#FB8756"/>
<path d="M1538.45 79.2719L1592.66 273.985L1406.39 232.274L1538.45 79.2719Z" fill="#FB8756"/>
<path d="M1055.45 987.082L1109.66 1181.8L923.386 1140.08L1055.45 987.082Z" fill="#FB8756"/>
<path d="M256.628 1081.27L61.1927 1132.82L105.442 947.13L256.628 1081.27Z" fill="#FB8756"/>
</svg>
