<svg width="130" height="40" viewBox="0 0 130 40" fill="none" xmlns="http://www.w3.org/2000/svg">
<rect width="130" height="40" rx="20" fill="url(#paint0_linear_215_2)"/>
<path d="M33.7729 27.1108C31.8086 27.1108 30.28 26.5422 29.1871 25.4049C28.1089 24.2677 27.5698 22.6062 27.5698 20.4203V11.4923H28.6997V20.376C28.6997 22.2812 29.1354 23.7065 30.0068 24.6517C30.8782 25.5969 32.1409 26.0695 33.7951 26.0695C35.4345 26.0695 36.6898 25.5969 37.5612 24.6517C38.4326 23.7065 38.8683 22.2812 38.8683 20.376V11.4923H39.9982V20.4203C39.9982 22.6062 39.4517 24.2677 38.3588 25.4049C37.2658 26.5422 35.7372 27.1108 33.7729 27.1108ZM50.7199 15.3471C51.7981 15.3471 52.7728 15.5982 53.6442 16.1003C54.5156 16.6025 55.195 17.2966 55.6824 18.1828C56.1845 19.0689 56.4356 20.0806 56.4356 21.2178C56.4356 22.3551 56.1845 23.3742 55.6824 24.2751C55.195 25.1612 54.5156 25.8554 53.6442 26.3575C52.7728 26.8449 51.7981 27.0886 50.7199 27.0886C49.7008 27.0886 48.7778 26.8523 47.9507 26.3797C47.1236 25.8923 46.4812 25.2203 46.0233 24.3637V31.2978H44.9156V15.4357H45.979V18.1606C46.4368 17.2745 47.0793 16.5877 47.9064 16.1003C48.7482 15.5982 49.6861 15.3471 50.7199 15.3471ZM50.6535 26.0917C51.5396 26.0917 52.3372 25.8849 53.0461 25.4714C53.755 25.0578 54.3088 24.4818 54.7076 23.7434C55.1212 23.0049 55.3279 22.1631 55.3279 21.2178C55.3279 20.2726 55.1212 19.4308 54.7076 18.6923C54.3088 17.9538 53.755 17.3778 53.0461 16.9643C52.3372 16.5508 51.5396 16.344 50.6535 16.344C49.7673 16.344 48.9698 16.5508 48.2608 16.9643C47.5667 17.3778 47.0128 17.9538 46.5993 18.6923C46.2005 19.4308 46.0012 20.2726 46.0012 21.2178C46.0012 22.1631 46.2005 23.0049 46.5993 23.7434C47.0128 24.4818 47.5667 25.0578 48.2608 25.4714C48.9698 25.8849 49.7673 26.0917 50.6535 26.0917ZM59.8651 10.5618H60.9728V27H59.8651V10.5618ZM70.161 27.0886C69.068 27.0886 68.0785 26.8375 67.1923 26.3354C66.321 25.8332 65.6342 25.1391 65.132 24.2529C64.6299 23.352 64.3788 22.3403 64.3788 21.2178C64.3788 20.0954 64.6299 19.0911 65.132 18.2049C65.6342 17.304 66.321 16.6025 67.1923 16.1003C68.0785 15.5982 69.068 15.3471 70.161 15.3471C71.2539 15.3471 72.236 15.5982 73.1074 16.1003C73.9936 16.6025 74.6877 17.304 75.1899 18.2049C75.692 19.0911 75.9431 20.0954 75.9431 21.2178C75.9431 22.3403 75.692 23.352 75.1899 24.2529C74.6877 25.1391 73.9936 25.8332 73.1074 26.3354C72.236 26.8375 71.2539 27.0886 70.161 27.0886ZM70.161 26.0917C71.0471 26.0917 71.8373 25.8849 72.5314 25.4714C73.2403 25.0578 73.7942 24.4818 74.193 23.7434C74.6065 23.0049 74.8133 22.1631 74.8133 21.2178C74.8133 20.2726 74.6065 19.4308 74.193 18.6923C73.7942 17.9538 73.2403 17.3778 72.5314 16.9643C71.8373 16.5508 71.0471 16.344 70.161 16.344C69.2748 16.344 68.4773 16.5508 67.7683 16.9643C67.0742 17.3778 66.5203 17.9538 66.1068 18.6923C65.708 19.4308 65.5087 20.2726 65.5087 21.2178C65.5087 22.1631 65.708 23.0049 66.1068 23.7434C66.5203 24.4818 67.0742 25.0578 67.7683 25.4714C68.4773 25.8849 69.2748 26.0917 70.161 26.0917ZM83.2354 15.3471C84.668 15.3471 85.7683 15.7163 86.5363 16.4548C87.3043 17.1785 87.6883 18.2492 87.6883 19.6671V27H86.6249V24.9397C86.2557 25.6191 85.7166 26.1508 85.0077 26.5348C84.2988 26.904 83.4495 27.0886 82.46 27.0886C81.1751 27.0886 80.156 26.7858 79.4028 26.1803C78.6643 25.5748 78.2951 24.7772 78.2951 23.7877C78.2951 22.8277 78.6348 22.0523 79.3141 21.4615C80.0083 20.856 81.1086 20.5532 82.6151 20.5532H86.5806V19.6228C86.5806 18.5446 86.2852 17.7249 85.6944 17.1637C85.1184 16.6025 84.2692 16.3218 83.1468 16.3218C82.3788 16.3218 81.6403 16.4548 80.9314 16.7206C80.2372 16.9865 79.6464 17.3409 79.1591 17.784L78.6052 16.9865C79.1812 16.4695 79.8754 16.0708 80.6877 15.7902C81.5 15.4948 82.3492 15.3471 83.2354 15.3471ZM82.6151 26.1803C83.5751 26.1803 84.3874 25.9588 85.052 25.5157C85.7314 25.0726 86.2409 24.4302 86.5806 23.5883V21.4172H82.6372C81.5 21.4172 80.6729 21.624 80.156 22.0375C79.6538 22.4511 79.4028 23.0197 79.4028 23.7434C79.4028 24.4966 79.6834 25.0948 80.2446 25.5378C80.8058 25.9662 81.596 26.1803 82.6151 26.1803ZM102.553 10.5618V27H101.468V24.2751C101.01 25.176 100.367 25.8702 99.5403 26.3575C98.7132 26.8449 97.7753 27.0886 96.7267 27.0886C95.6486 27.0886 94.6738 26.8375 93.8024 26.3354C92.931 25.8332 92.2443 25.1391 91.7421 24.2529C91.2547 23.3668 91.011 22.3551 91.011 21.2178C91.011 20.0806 91.2547 19.0689 91.7421 18.1828C92.2443 17.2818 92.931 16.5877 93.8024 16.1003C94.6738 15.5982 95.6486 15.3471 96.7267 15.3471C97.7606 15.3471 98.6836 15.5908 99.4959 16.0782C100.323 16.5655 100.973 17.2449 101.445 18.1163V10.5618H102.553ZM96.7932 26.0917C97.6793 26.0917 98.4695 25.8849 99.1636 25.4714C99.8726 25.0578 100.426 24.4818 100.825 23.7434C101.239 23.0049 101.445 22.1631 101.445 21.2178C101.445 20.2726 101.239 19.4308 100.825 18.6923C100.426 17.9538 99.8726 17.3778 99.1636 16.9643C98.4695 16.5508 97.6793 16.344 96.7932 16.344C95.907 16.344 95.1095 16.5508 94.4006 16.9643C93.7064 17.3778 93.1526 17.9538 92.739 18.6923C92.3403 19.4308 92.1409 20.2726 92.1409 21.2178C92.1409 22.1631 92.3403 23.0049 92.739 23.7434C93.1526 24.4818 93.7064 25.0578 94.4006 25.4714C95.1095 25.8849 95.907 26.0917 96.7932 26.0917Z" fill="white"/>
<defs>
<linearGradient id="paint0_linear_215_2" x1="-5" y1="-7.28853e-06" x2="152" y2="52" gradientUnits="userSpaceOnUse">
<stop offset="0.239583" stop-color="#E76730"/>
<stop offset="1" stop-color="#1814DF"/>
</linearGradient>
</defs>
</svg>
